PathFileType	4	(x/y/z)	S06_P20_T30
DataRate	CameraRate	NumFrames	NumMarkers	Units	OrigDataRate	OrigDataStartFrame	OrigNumFrames
240	240	4	51	mm	240	44	347
Frame#	Time	Sternum			R.Acromium			L.Acromium			Top.Head			R.ASIS			L.ASIS			R.PSIS			L.PSIS			R.Great.Tro			L.Great.Tro			R.Iliac.Crest			L.Iliac.Crest			V.Sacral			R.Thigh.Upper.Post			R.Thigh.Lower.Ant			R.Thigh.Lower.Post			R.Thigh.Upper.Ant			R.Knee.Lat			R.Knee.Med			R.Shank.Upper.Post			R.Shank.Lower.Ant			R.Shank.Lower.Post			R.Shank.Upper.Ant			R.Ankle.Lat			R.Ankle.Med			R.Heel.Upper			R.Heel.Med			R.Heel.Lat			R.Toe.Lat			R.Toe.Med			R.Toe.Tip			L.Thigh.Upper.Post			L.Thigh.Lower.Ant			L.Thigh.Lower.Post			L.Thigh.Upper.Ant			L.Knee.Lat			L.Knee.Med			L.Shank.Upper.Post			L.Shank.Lower.Ant			L.Shank.Lower.Post			L.Shank.Upper.Ant			L.Ankle.Lat			L.Ankle.Med			L.Heel.Upper			L.Heel.Med			L.Heel.Lat			L.Toe.Lat			L.Toe.Med			L.Toe.Tip			Cervical.Spine			Back			
		X1	Y1	Z1	X2	Y2	Z2	X3	Y3	Z3	X4	Y4	Z4	X5	Y5	Z5	X6	Y6	Z6	X7	Y7	Z7	X8	Y8	Z8	X9	Y9	Z9	X10	Y10	Z10	X11	Y11	Z11	X12	Y12	Z12	X13	Y13	Z13	X14	Y14	Z14	X15	Y15	Z15	X16	Y16	Z16	X17	Y17	Z17	X18	Y18	Z18	X19	Y19	Z19	X20	Y20	Z20	X21	Y21	Z21	X22	Y22	Z22	X23	Y23	Z23	X24	Y24	Z24	X25	Y25	Z25	X26	Y26	Z26	X27	Y27	Z27	X28	Y28	Z28	X29	Y29	Z29	X30	Y30	Z30	X31	Y31	Z31	X32	Y32	Z32	X33	Y33	Z33	X34	Y34	Z34	X35	Y35	Z35	X36	Y36	Z36	X37	Y37	Z37	X38	Y38	Z38	X39	Y39	Z39	X40	Y40	Z40	X41	Y41	Z41	X42	Y42	Z42	X43	Y43	Z43	X44	Y44	Z44	X45	Y45	Z45	X46	Y46	Z46	X47	Y47	Z47	X48	Y48	Z48	X49	Y49	Z49	X50	Y50	Z50	X51	Y51	Z51	

44	0.17917	-1030.4	1277	287.73	-1137.3	1491.7	459.92	-1159.6	1494.7	109.44	-1095.7	1808.6	279.87	-1100.3	1042.6	416.35	NaN	NaN	NaN	-1295.7	1076.8	319.75	-1298.8	1081.9	240.07	-1157.2	977.18	466.32	-1182.5	980.14	107.94	-1182.6	1124.2	447.32	-1160.9	1120.1	125.67	-1314.9	1046.7	283.03	-1096	733.67	476.05	-1022.8	667.45	444.22	-1086.3	645.75	461.8	-1030.7	758.63	454.2	-1055.5	540.74	449.93	-1032.4	542.59	320.44	-1232.4	408.96	441.54	-1241.3	321.72	415.16	-1289	358.3	424.04	-1182.7	371.44	432.64	-1368.4	252.08	398.1	-1349.5	240.95	310.48	-1434.7	281.6	348.15	-1450	256.69	316.32	-1455.4	256.55	380.37	-1359	106.31	419.29	-1334.3	94.49	302.48	-1281.8	49.837	349.12	-1075.8	724.39	130.31	-1018.5	657.02	196.63	-1080.2	635.69	151.52	-1021.1	749.43	171.9	-1078.8	542.92	168.65	-1060.8	554.41	288.26	-1121.8	316.89	178.1	-1057.9	255.61	186.63	-1127.7	245.28	195.26	-1054.7	325.83	174.88	-1084.8	105.1	201.7	-1081.7	110.61	293.1	-1161	70.015	241.89	-1158.2	44.041	274.76	-1153.3	44.418	213.03	-972.49	45.969	185.52	-960.06	51.825	304.33	-885.92	67.031	256.01	-1199	1547.6	287.75	-1278.3	1281.6	289.53
45	0.18333	-1025.4	1277.2	287.77	-1132.4	1492	459.87	-1154.2	1495	109.37	-1090.4	1809	279.68	-1096.1	1043.1	416.23	NaN	NaN	NaN	-1291	1077.2	319.6	-1294.1	1082.3	239.88	-1152.4	977.6	466.11	-1177.7	980.57	107.71	-1177.8	1124.4	447.17	-1156.2	1120.5	125.54	-1310.1	1047	282.84	-1088.3	734.99	475.88	-1014.3	669.76	444.11	-1077.6	647.21	461.54	-1023.4	760.81	454.09	-1045.3	542.73	449.83	-1022.9	544.79	320.18	-1221.9	410.44	441.86	-1230.8	322.9	415.23	-1278.7	359.75	424.43	-1171.8	373.09	432.65	-1357.4	253.35	398.71	-1338.8	241.92	311.06	-1424.1	282.02	348.49	-1439.4	256.82	316.83	-1444.9	257.21	380.91	-1347.2	108.08	420.87	-1322.3	95.484	304.13	-1269.7	51.028	350.92	-1072.2	724.34	130.08	-1015.1	656.72	196.37	-1077	635.69	151.35	-1017.3	749.13	171.57	-1075.9	542.89	168.6	-1057.8	554.37	288.14	-1120.4	317.09	178.23	-1056.8	255.43	186.65	-1126.7	245.55	195.43	-1053.3	325.62	174.88	-1084.6	105.14	201.82	-1081.5	110.61	293.22	-1161	70.113	241.94	-1158.2	44.093	274.79	-1153.2	44.522	213.05	-972.45	45.927	185.49	-959.87	51.489	304.36	-885.81	66.58	256.08	-1193.8	1548	287.62	-1273.4	1282.1	289.28
46	0.1875	-1020.4	1277.4	287.82	-1127.6	1492.4	459.84	-1148.7	1495.3	109.3	-1085	1809.4	279.51	-1091.7	1043.6	416.11	NaN	NaN	NaN	-1286.4	1077.7	319.44	-1289.4	1082.7	239.68	-1147.6	978.08	465.91	-1172.9	981	107.5	-1173	1124.7	447.02	-1151.5	1121	125.42	-1305.3	1047.4	282.64	-1080.8	736.39	475.65	-1005.8	672.12	443.96	-1068.9	648.74	461.21	-1016.1	763.04	453.94	-1035.3	544.79	449.67	-1013.5	547.02	319.89	-1211.3	411.77	442.13	-1220	324.01	415.33	-1268.4	360.94	424.77	-1160.9	374.66	432.64	-1346.2	254.24	399.29	-1327.9	242.55	311.61	-1413.3	281.94	348.79	-1428.5	256.41	317.31	-1434.1	257.32	381.42	-1334.8	109.56	422.45	-1309.8	96.209	305.77	-1257	52.19	352.73	-1068.7	724.28	129.9	-1011.9	656.4	196.13	-1073.9	635.68	151.22	-1013.6	748.79	171.25	-1073.2	542.87	168.59	-1054.9	554.33	288.07	-1119.1	317.28	178.4	-1055.8	255.26	186.7	-1125.8	245.82	195.64	-1051.9	325.42	174.9	-1084.4	105.19	201.95	-1081.4	110.61	293.35	-1160.9	70.215	242	-1158.2	44.146	274.82	-1153.2	44.628	213.09	-972.41	45.9	185.47	-959.69	51.182	304.38	-885.71	66.171	256.14	-1188.6	1548.5	287.5	-1268.4	1282.6	289.04
47	0.19167	-1015.4	1277.7	287.86	-1122.7	1492.7	459.8	-1143.3	1495.6	109.25	-1079.7	1809.8	279.36	-1087.1	1044.2	415.99	NaN	NaN	NaN	-1281.8	1078.1	319.28	-1284.7	1083.1	239.47	-1142.8	978.61	465.73	-1168.1	981.42	107.31	-1168.2	1125.1	446.86	-1146.8	1121.4	125.31	-1300.4	1047.8	282.44	-1073.3	737.83	475.37	-997.54	674.52	443.78	-1060.4	650.34	460.83	-1009	765.28	453.74	-1025.4	546.9	449.47	-1004.2	549.28	319.56	-1200.8	412.94	442.33	-1209	325.01	415.47	-1258	361.88	425.06	-1150.1	376.12	432.63	-1334.7	254.76	399.85	-1316.7	242.85	312.14	-1402.4	281.37	349.07	-1417.4	255.47	317.77	-1423.1	256.89	381.93	-1321.9	110.74	424.02	-1296.7	96.672	307.38	-1243.7	53.309	354.51	-1065.2	724.21	129.75	-1008.7	656.05	195.93	-1070.9	635.66	151.12	-1009.9	748.44	170.96	-1070.6	542.84	168.62	-1052.2	554.28	288.04	-1117.9	317.46	178.61	-1054.9	255.1	186.78	-1124.9	246.08	195.87	-1050.6	325.22	174.96	-1084.3	105.25	202.09	-1081.2	110.6	293.49	-1160.9	70.322	242.07	-1158.2	44.202	274.86	-1153.2	44.737	213.12	-972.37	45.883	185.46	-959.51	50.898	304.41	-885.63	65.798	256.21	-1183.5	1548.9	287.39	-1263.4	1283.1	288.81
